#!OML:ASF H:\Terrain\Patient Classification 1\Takeo\Monday\TakeoMonday.ASF
:FULLY-SPECIFIED
:DEGREES
1407
root 9.35959 17.2114 -2.53545 -7.63094 3.58527 2.02135
lowerback 2.7263 8.14409 3.72921
upperback -0.135835 10.9668 -4.20158
thorax -0.128535 5.51569 -6.57307
lowerneck -8.46405 7.878 0.3838
upperneck -3.94272 10.5152 3.47495
head -0.0126818 5.2971 1.25009
rclavicle -8.91549e-014 6.52014e-014
rhumerus 66.5126 44.432 -59.3019
rradius 40.9265
rwrist 13.1403
rhand -30.1648 14.1492
rfingers 7.12502
rthumb -3.47658 -15.8022
lclavicle -8.91549e-014 6.52014e-014
lhumerus 42.2484 16.5448 97.3151
lradius 68.3643
lwrist 71.1198
lhand -26.0985 26.188
lfingers 7.12502
lthumb 0.450566 56.1673
rfemur 14.6717 -14.1423 20.3753
rtibia 19.9157
rfoot -29.3946 -29.8927
rtoes 3.40598
lfemur -17.801 -10.5581 -20.3115
ltibia 33.6564
lfoot -5.67117 -1.06431
ltoes -10.1922
1408
root 9.3532 17.2082 -2.54087 -7.57694 2.92935 1.53621
lowerback 2.43619 8.16108 4.18148
upperback -0.142222 10.9974 -4.09673
thorax 0.0932367 5.53705 -6.65651
lowerneck -8.53043 8.07155 0.58309
upperneck -3.94152 10.7504 3.31707
head 0.0122796 5.41117 1.17856
rclavicle 7.4743e-014 2.54444e-014
rhumerus 67.5134 44.2601 -58.1626
rradius 41.1822
rwrist 13.5775
rhand -29.9571 14.2333
rfingers 7.12502
rthumb -3.27604 -15.7213
lclavicle 7.4743e-014 2.54444e-014
lhumerus 42.4198 16.9811 97.6214
lradius 68.1869
lwrist 71.819
lhand -26.0473 25.8281
lfingers 7.12502
lthumb 0.500045 55.8073
rfemur 14.4916 -13.7532 21.0311
rtibia 19.9303
rfoot -29.2617 -29.601
rtoes 3.42689
lfemur -17.9156 -9.95909 -19.6508
ltibia 33.7466
lfoot -5.8167 -0.954677
ltoes -11.7788
1409
root 9.35241 17.2052 -2.54412 -7.73488 2.28843 1.26356
lowerback 2.48032 8.19606 4.52679
upperback -0.126464 11.0562 -4.03369
thorax 0.14595 5.56898 -6.77817
lowerneck -8.82629 8.21936 0.633717
upperneck -3.61335 10.9219 3.28067
head 0.164633 5.50179 1.18896
rclavicle -4.27387e-015 -1.43125e-014
rhumerus 68.1903 44.1318 -57.3599
rradius 41.2231
rwrist 14.4602
rhand -29.6279 14.4149
rfingers 7.12502
rthumb -2.95809 -15.5443
lclavicle -4.27387e-015 -1.43125e-014
lhumerus 42.4666 17.3922 98.0481
lradius 68.2636
lwrist 72.4305
lhand -26.0951 26.1561
lfingers 7.12502
lthumb 0.453869 56.1354
rfemur 14.5471 -13.3803 21.3435
rtibia 20.0307
rfoot -29.2281 -29.4234
rtoes 3.53402
lfemur -17.6886 -9.42562 -19.2765
ltibia 33.7424
lfoot -5.94913 -0.779659
ltoes -11.4955
1410
root 9.35615 17.2083 -2.54186 -7.90762 1.77326 1.62199
lowerback 2.75036 8.18194 4.3289
upperback -0.218058 11.0377 -4.18154
thorax -0.108814 5.55051 -6.87968
lowerneck -8.56435 8.25796 0.940378
upperneck -3.6805 10.9458 2.82473
head 0.141437 5.50151 0.988065
rclavicle -7.86193e-014 4.29375e-014
rhumerus 68.3541 44.1752 -57.241
rradius 41.2606
rwrist 15.8329
rhand -28.6516 14.5359
rfingers 7.12502
rthumb -2.01521 -15.4344
lclavicle -7.86193e-014 4.29375e-014
lhumerus 42.2976 17.8624 98.2208
lradius 68.2829
lwrist 73.2139
lhand -26.3399 26.6171
lfingers 7.12502
lthumb 0.217454 56.5967
rfemur 14.7039 -13.0753 20.8373
rtibia 20.0982
rfoot -28.9057 -29.2728
rtoes 3.13283
lfemur -17.3273 -8.92211 -19.6464
ltibia 33.7116
lfoot -6.24425 -0.562157
ltoes -10.271
1411
root 9.35533 17.2114 -2.53993 -8.01275 1.24546 1.74744
lowerback 2.8698 8.13902 4.30285
upperback -0.343951 10.9809 -4.28702
thorax -0.298 5.51343 -7.00811
lowerneck -7.94407 8.32277 1.28789
upperneck -4.0644 11.0239 2.45637
head -0.0410662 5.52354 0.782392
rclavicle -4.97956e-014 1.90833e-014
rhumerus 68.4542 44.1868 -57.2834
rradius 41.3696
rwrist 16.6806
rhand -27.684 14.1143
rfingers 7.12502
rthumb -1.08072 -15.8628
lclavicle -4.97956e-014 1.90833e-014
lhumerus 42.1873 18.3449 98.1968
lradius 67.955
lwrist 74.245
lhand -26.1759 26.4604
lfingers 7.12502
lthumb 0.375832 56.4399
rfemur 14.6799 -12.7899 20.6346
rtibia 20.3494
rfoot -28.8069 -29.0237
rtoes 3.29322
lfemur -17.0532 -8.39709 -19.7244
ltibia 33.6203
lfoot -6.43161 -0.444797
ltoes -9.80143
1412
root 9.351 17.2122 -2.53929 -8.05774 0.735817 1.70044
lowerback 2.73126 8.11523 4.31439
upperback -0.334742 10.9457 -4.28477
thorax -0.215349 5.49851 -6.9889
lowerneck -7.71521 8.41076 1.29091
upperneck -4.25463 11.1537 2.51595
head -0.141426 5.58468 0.785008
rclavicle 1.47697e-013 4.77083e-015
rhumerus 68.9721 44.0446 -56.7166
rradius 41.5125
rwrist 17.1283
rhand -27.3868 13.2889
rfingers 7.12502
rthumb -0.793669 -16.6894
lclavicle 1.47697e-013 4.77083e-015
lhumerus 42.1946 18.722 98.4371
lradius 67.6859
lwrist 75.3182
lhand -25.7319 25.8474
lfingers 7.12502
lthumb 0.804675 55.8256
rfemur 14.5227 -12.5188 20.6913
rtibia 20.7172
rfoot -28.7873 -28.883
rtoes 3.01948
lfemur -16.8674 -7.99588 -19.5895
ltibia 33.5425
lfoot -6.27363 -0.375721
ltoes -12.7539
1413
root 9.34807 17.2083 -2.53965 -8.01136 0.245675 1.95649
lowerback 2.35811 8.06853 3.90308
upperback -0.228023 10.8614 -4.28516
thorax 0.0135505 5.46509 -6.70189
lowerneck -7.77468 8.54299 1.52705
upperneck -4.33045 11.3027 2.13592
head -0.122545 5.65267 0.639701
rclavicle -8.98507e-014 4.6118e-014
rhumerus 69.975 44.0519 -55.4512
rradius 41.8001
rwrist 17.6937
rhand -27.3186 11.8511
rfingers 7.12502
rthumb -0.727808 -18.1274
lclavicle -8.98507e-014 4.6118e-014
lhumerus 42.4033 19.1949 98.9795
lradius 67.4039
lwrist 75.9065
lhand -25.1708 25.3201
lfingers 7.12502
lthumb 1.34663 55.2956
rfemur 14.3362 -12.1058 20.4758
rtibia 20.9323
rfoot -28.8681 -28.9423
rtoes 2.12224
lfemur -16.8573 -7.70452 -19.7702
ltibia 33.6134
lfoot -6.17472 -0.167422
ltoes -14.784
